<svg xmlns="http://www.w3.org/2000/svg" shape-rendering="geometricPrecision" text-rendering="geometricPrecision" image-rendering="optimizeQuality" fill-rule="evenodd" clip-rule="evenodd" viewBox="0 0 512 375.715"><path fill="#3F4144" fill-rule="nonzero" d="M278.13 344.006c.138 7.543.246 13.445.246 15.656a5.237 5.237 0 01-5.236 5.236h-34.277a5.237 5.237 0 01-5.236-5.236c0-2.489.129-8.6.289-16.267.765-36.366 2.355-111.93-6.457-123.937-4.618-6.295-9.42-6.199-18.319-6.026l-5.955.094a5.236 5.236 0 01-5.235-5.235v-32.924a5.236 5.236 0 015.235-5.236h105.633a5.237 5.237 0 015.236 5.236v32.881a5.237 5.237 0 01-5.236 5.236l-5.916-.094c-9.372-.185-14.731-.288-19.257 6.96-7.541 12.073-6.165 87.882-5.515 123.656z"/><path fill="#57595D" d="M273.14 359.662c0-20.329-3.867-126.169 6.067-142.073 7.076-11.33 14.61-9.34 29.611-9.34v-26.04H203.185v26.082c14.59 0 21.216-1.829 28.488 8.08 11.746 16.006 7.19 122.049 7.19 143.291h34.277z"/><path fill="#56A6C8" fill-rule="nonzero" d="M98.356 49.45c-1.453.39-2.599 1.155-3.514 2.382-3.427 4.768.871 11.194 6.631 9.789a260.142 260.142 0 0111.941-2.779c7.626-1.675 6.035-12.986-1.815-12.412l-.715.106a272.336 272.336 0 00-12.528 2.914zm336.936-22.017c6.386 4.378 13.515-4.133 7.981-9.667l-.681-.559a60.867 60.867 0 00-4.413-2.849c-2.773-1.574-6.166-.924-8.142 1.605-2.285 3.018-1.468 7.333 1.827 9.255a47.34 47.34 0 013.428 2.215zm-25.129-10.651c1.403.342 2.745.221 4.086-.357 5.407-2.478 4.782-10.268-1.034-11.829-4.265-1.073-8.517-1.92-12.857-2.618-7.659-1.094-10.206 9.751-2.887 12.19.317.096.608.165.934.219 3.977.648 7.848 1.411 11.758 2.395zm-35.801-4.219c7.448 0 8.751-10.935 1.096-12.467A7.235 7.235 0 00374.346 0c-4.336 0-8.707.169-13.03.508-7.88.749-7.565 12.159.254 12.539 4.273-.09 8.454-.484 12.792-.484zm-35.876 4.163c7.079-1.726 5.96-12.203-1.396-12.387-.543 0-1.043.049-1.572.178a154.001 154.001 0 00-12.595 3.581c-7.122 2.493-4.771 13.109 2.914 12.171.384-.067.71-.141 1.083-.262 3.791-1.272 7.679-2.351 11.566-3.281zm-33.441 12.888c2.733-1.551 3.888-4.821 2.756-7.765-1.393-3.533-5.607-5.061-8.937-3.172a118.195 118.195 0 00-11.173 7.1c-6.117 4.498-.595 13.97 6.367 10.772.346-.173.642-.346.96-.569a107.85 107.85 0 0110.027-6.366zm-27.594 22.193c4.973-5.684-2.616-13.761-8.634-9.059a6.462 6.462 0 00-.807.771 93.169 93.169 0 00-4.117 4.947 93.522 93.522 0 00-4.119-4.947c-1.82-2.082-4.732-2.695-7.275-1.596-3.846 1.709-4.967 6.683-2.166 9.884 2.604 2.904 5.047 6.119 7.275 9.322 2.396 3.494 9.27 3.632 12.072.63l.496-.63c2.228-3.203 4.671-6.418 7.275-9.322zm-192.258-34.6c-6.308 4.638-.305 14.304 6.689 10.612 1.367-.865 2.633-1.769 4.039-2.601 6.206-3.619 2.437-13.349-4.859-11.479a6.922 6.922 0 00-1.457.619 62.922 62.922 0 00-4.412 2.849zm29.378-12.611c-7.524 2.018-5.557 13.095 2.264 12.332 4.209-.78 8.234-1.836 12.543-2.541 7.601-1.266 6.707-12.486-1.076-12.486l-.876.077c-4.341.7-8.59 1.545-12.855 2.618zM153.437 0c-2.844 0-5.376 1.924-6.089 4.706-1.013 3.948 1.947 7.857 6.074 7.857 4.027 0 8.054.163 12.069.469 1.59.114 3.056-.323 4.338-1.299 4.48-3.601 2.42-10.675-3.362-11.225A167.1 167.1 0 00153.437 0zm38.829 4.517a6.284 6.284 0 00-6.951 3.006c-2.052 3.593-.073 8.213 3.983 9.203 3.906.933 7.754 2.019 11.567 3.281 7.329 2.382 11.727-8.021 4.811-11.573-3.888-1.609-9.27-2.929-13.41-3.917zm36.656 14.16c-2.821-1.601-6.312-.782-8.215 1.834a6.285 6.285 0 002.034 9.103 108.99 108.99 0 0110.029 6.368c6.149 4.34 13.447-3.823 8.165-9.484a6.997 6.997 0 00-.845-.726 122.099 122.099 0 00-11.168-7.095zm186.821 87.177a6.287 6.287 0 006.804-3.723c1.572-3.737-.696-7.996-4.747-8.671a222.867 222.867 0 00-7.545-1.105c-7.392-.88-9.945 9.553-2.885 12.154.45.154.844.242 1.313.309 2.364.317 4.705.646 7.06 1.036zm-31.133-2.283c7.358-.35 8.385-10.781 1.008-12.442a6.894 6.894 0 00-1.423-.114c-4.309.114-8.845.439-13.116 1.023-7.833 1.119-7.014 12.698 1.126 12.503 4.219-.388 8.135-.857 12.405-.97zm-34.824 6.521c7.181-2.762 3.919-13.693-3.664-11.986a6.448 6.448 0 00-.842.258c-4.201 1.62-8.203 3.415-12.166 5.559a6.254 6.254 0 00-2.705 2.89c-2.47 5.555 3.416 11.006 8.705 8.146 3.462-1.884 6.999-3.45 10.672-4.867zm-29.46 18.685c1.814-1.814 2.377-4.365 1.46-6.789-1.681-4.146-6.955-5.374-10.236-2.202-3.174 3.044-6.209 6.456-8.946 9.898-4.763 6.047 3.556 13.774 9.24 8.469a7.15 7.15 0 00.593-.65c2.419-3.042 5.085-6.035 7.889-8.726zM108.13 93.46c-7.247 1.208-6.878 11.904.63 12.467.488.023.946.008 1.426-.073 2.355-.39 4.696-.719 7.06-1.036 7.835-1.118 6.974-12.513-.851-12.513-2.651.185-5.626.719-8.265 1.155zm33.604-2.445c-7.402-.176-9.026 10.318-1.828 12.348.494.123.905.183 1.413.208 3.927.104 8.032.398 11.924.926 7.531.896 9.972-9.795 2.697-12.221a6.952 6.952 0 00-1.09-.238c-4.273-.584-8.805-.909-13.116-1.023zm38.915 7.349c-7.245-2.716-12.173 7.54-5.165 11.432 3.923 1.761 7.477 3.066 11.331 5.163 6.769 3.66 12.941-5.866 6.742-10.564a6.337 6.337 0 00-.742-.472c-3.963-2.144-7.965-3.939-12.166-5.559zm33.731 21.422c-5.434-5.254-13.905 1.912-9.503 8.145.226.312.453.573.726.846 2.804 2.691 5.471 5.684 7.889 8.726 1.497 1.901 3.94 2.734 6.31 2.217 4.476-1.046 6.416-6.364 3.523-10.036-2.737-3.442-5.772-6.854-8.945-9.898zm201.701-58.165c1.448.353 2.856.238 4.227-.4 5.299-2.537 4.613-10.235-1.109-11.771a272.682 272.682 0 00-12.529-2.914c-7.225-1.409-10.596 8.511-4.026 11.796.519.239.934.386 1.497.51 4.006.839 7.977 1.752 11.94 2.779zm-35.98-6.255c2.92.208 5.568-1.603 6.455-4.407 1.182-3.839-1.502-7.833-5.547-8.121-4.356-.315-8.669-.509-13.036-.492a6.253 6.253 0 00-3.75 1.267c-4.798 3.654-2.232 11.296 3.811 11.296 4.039-.017 8.04.165 12.067.457zm-35.768 1.892c7.523-1.651 6.07-12.794-1.707-12.415a6.967 6.967 0 00-.873.121c-4.257.869-8.789 2.059-12.887 3.502-2.705.947-4.483 3.64-4.194 6.523.392 4.021 4.451 6.695 8.315 5.344 3.53-1.27 7.665-2.326 11.346-3.075zm-32.299 13.458c2.343-1.607 3.31-4.546 2.385-7.25-1.326-3.879-6.072-5.453-9.478-3.118-3.775 2.539-7.142 5.292-10.567 8.271-5.388 5.04.62 13.655 7.296 10.132.434-.262.78-.496 1.157-.836 2.933-2.586 5.96-5.015 9.207-7.199zm-24.766 24.965c4.005-5.844-3.339-12.963-9.132-8.437a6.391 6.391 0 00-1.228 1.332 143.798 143.798 0 00-6.96 11.156c-.698 1.292-.921 2.562-.712 4.04.979 5.872 8.738 7.268 11.694 2.061 1.976-3.5 4.058-6.843 6.338-10.152zm-16.444 32.091c2.593-7.408-7.667-11.923-11.411-5.184l-.364.801-.271.731-.273-.731c-2.8-7.282-13.718-4-11.988 3.693l.213.69a226.216 226.216 0 013.954 11.554c1.955 6.012 13.111 6.06 15.8.962.158-.322.275-.62.386-.962 1.224-3.9 2.522-7.725 3.954-11.554zM136.546 42.838c-3.183.227-5.747 2.868-5.824 6.076-.09 3.721 2.999 6.719 6.731 6.452 4.027-.292 8.029-.474 12.067-.457 7.467 0 8.69-10.774 1.326-12.431a6.534 6.534 0 00-1.264-.132c-4.367-.017-8.682.177-13.036.492zm39.255 2.126c-7.621-1.488-10.706 9.439-3.352 12.08 4.094 1.13 8.044 1.822 12.119 3.289a6.288 6.288 0 007.377-2.587c2.118-3.431.599-7.931-3.256-9.28-4.098-1.443-8.631-2.633-12.888-3.502zm36.812 15.384c-5.83-3.998-12.962 3.337-8.426 9.142a6.39 6.39 0 001.334 1.226c3.248 2.184 6.262 4.607 9.199 7.191a6.244 6.244 0 003.928 1.633c5.88.223 8.869-6.865 4.533-10.921-3.425-2.977-6.793-5.732-10.568-8.271zm28.034 28.228c-1.74-2.537-5.117-3.463-7.902-2.108-3.454 1.68-4.647 6.02-2.458 9.213a133.04 133.04 0 016.337 10.152c.734 1.293 1.791 2.237 3.195 2.795 5.489 2.104 10.606-3.683 7.788-8.896a144.716 144.716 0 00-6.96-11.156z"/><path fill="#3F4144" fill-rule="nonzero" d="M259.816 219.552v140.11h-7.631v-140.11zM194.738 154.649h124.046c1.936 0 3.704.795 4.986 2.079a7.009 7.009 0 012.08 4.986v13.43a7.06 7.06 0 01-2.074 4.992 7.058 7.058 0 01-4.992 2.074H194.738a7.05 7.05 0 01-4.992-2.074 7.085 7.085 0 01-2.074-4.992v-13.43c0-1.935.794-3.698 2.074-4.982a7.05 7.05 0 014.992-2.083z"/><path fill="#57595D" fill-rule="nonzero" d="M318.784 159.734H194.738a1.968 1.968 0 00-1.98 1.98v13.43c0 .548.219 1.046.573 1.397.367.358.865.583 1.407.583h124.046a1.98 1.98 0 001.398-.583 1.98 1.98 0 00.582-1.397v-13.43a1.98 1.98 0 00-.582-1.397 1.94 1.94 0 00-1.398-.583z"/><path fill="#609137" fill-rule="nonzero" d="M443.217 370.706h-30.851a4.63 4.63 0 01-4.54-3.725l-4.254-21.27-.036-.29c-5.828-42.824-6.565-79.339-2.261-109.589 4.382-30.794 13.995-55.206 28.78-73.289a4.644 4.644 0 015.57-1.231 4.611 4.611 0 012.17 6.149c-14.17 29.522-16.795 60.225-13.441 91.183 2.174 20.065 6.864 40.281 12.57 60.379l-.13-3.977c.886-18.143 2.773-35.713 5.564-52.756a454.42 454.42 0 0110.925-49.367 4.629 4.629 0 019.129 1.372c-2.13 25.945-2.611 51.366-1.536 76.425.951 22.204 3.125 44.193 6.454 66.08 3.704-8.523 3.281-13.976 2.614-22.585-.215-2.787-.458-5.893-.621-9.949-.377-9.386-.24-18.857.35-28.291.609-9.749 1.72-19.561 3.262-29.293a4.616 4.616 0 015.28-3.835 4.597 4.597 0 013.075 1.94c9.657 13.466 14.454 29.339 15.875 46.853 1.392 17.172-.475 35.966-4.152 55.624a4.617 4.617 0 01-4.882 3.755l-20.236-.859a4.673 4.673 0 01-1.226-.213c-.73.48-1.601.759-2.539.759h-20.913zm-106.269-1.173l-16.662.71a3.84 3.84 0 01-4.018-3.123c-3.025-16.158-4.559-31.606-3.415-45.714 1.165-14.381 5.103-27.421 13.024-38.484a3.833 3.833 0 016.969 1.536c2.334 14.731 2.63 29.69 2.918 44.342l.054 2.759c.075 3.859-.004 7.033-.073 9.839-.156 6.181-.26 10.445 1.751 16.251a504.51 504.51 0 005.176-53.434c.883-20.592.488-41.477-1.259-62.791a3.845 3.845 0 017.587-1.129 374.17 374.17 0 018.974 40.555 385.363 385.363 0 014.573 43.353l-.094 2.912c4.643-16.396 8.455-32.889 10.229-49.26 2.754-25.429.596-50.653-11.041-74.9a3.833 3.833 0 016.422-4.081c12.142 14.829 20.038 34.856 23.649 60.114 3.559 24.881 2.957 54.93-1.841 90.183l-3.525 17.716a3.852 3.852 0 01-3.771 3.096h-42.536a3.83 3.83 0 01-2.095-.62 3.84 3.84 0 01-.996.17z"/><path fill="#8EBF70" d="M382.575 366.135h-42.536c6.785-40.881 8.72-82.168 5.207-125.011 7.333 26.094 12.021 53.732 13.468 83.259l-1.155 31.873c16.466-51.361 31.528-104.974 7.538-154.954 23.373 28.583 30.473 77.566 20.972 147.358l-3.494 17.475zm29.791-.059H464.13c-8.256-49.754-10.614-99.998-6.332-152.142-8.926 31.758-14.633 65.395-16.392 101.329l1.404 38.788c-20.04-62.505-38.369-127.754-9.174-188.579-28.442 34.786-37.083 94.4-25.524 179.334l4.254 21.27zm76.107.338l-20.397-.867c9.826-17.36 6.606-22.863 5.86-41.462-.753-18.729.589-37.947 3.556-56.68 18.304 25.456 18.195 60.467 10.981 99.009zM320.039 366.414l16.759-.712c-6.889-13.671-4.496-18.32-4.813-34.069-.312-15.398-.486-31.182-2.925-46.573-15.04 20.917-14.95 49.685-9.021 81.354z"/><path fill="#609137" fill-rule="nonzero" d="M75.339 370.706h30.851a4.631 4.631 0 004.54-3.725l4.254-21.27.036-.29c5.828-42.824 6.564-79.339 2.261-109.589-4.382-30.794-13.995-55.206-28.78-73.289a4.644 4.644 0 00-5.57-1.231 4.611 4.611 0 00-2.17 6.149c14.17 29.522 16.795 60.225 13.441 91.183-2.174 20.065-6.864 40.281-12.57 60.379l.13-3.977c-.886-18.143-2.773-35.713-5.564-52.756a454.42 454.42 0 00-10.925-49.367 4.628 4.628 0 00-9.129 1.372c2.13 25.945 2.611 51.366 1.536 76.425-.951 22.204-3.125 44.193-6.454 66.08-3.704-8.523-3.281-13.976-2.614-22.585.215-2.787.457-5.893.621-9.949.376-9.386.24-18.857-.35-28.291-.609-9.749-1.721-19.561-3.262-29.293a4.616 4.616 0 00-5.28-3.835 4.597 4.597 0 00-3.075 1.94c-9.657 13.466-14.455 29.339-15.875 46.853-1.392 17.172.475 35.966 4.152 55.624a4.617 4.617 0 004.882 3.755l20.236-.859c.426-.017.838-.09 1.226-.213.73.48 1.601.759 2.539.759h20.913zm106.269-1.173l16.662.71a3.84 3.84 0 004.018-3.123c3.025-16.158 4.559-31.606 3.415-45.714-1.165-14.381-5.103-27.421-13.024-38.484a3.833 3.833 0 00-6.969 1.536c-2.334 14.731-2.63 29.69-2.918 44.342l-.054 2.759c-.075 3.859.004 7.033.073 9.839.156 6.181.259 10.445-1.751 16.251a504.51 504.51 0 01-5.176-53.434c-.883-20.592-.488-41.477 1.259-62.791a3.845 3.845 0 00-7.587-1.129 374.17 374.17 0 00-8.974 40.555 385.13 385.13 0 00-4.573 43.353l.094 2.912c-4.643-16.396-8.455-32.889-10.229-49.26-2.754-25.429-.596-50.653 11.04-74.9a3.831 3.831 0 00-6.421-4.081c-12.142 14.829-20.038 34.856-23.65 60.114-3.558 24.881-2.956 54.93 1.841 90.183l3.526 17.716a3.852 3.852 0 003.771 3.096h42.536a3.83 3.83 0 002.095-.62c.315.098.65.157.996.17z"/><path fill="#8EBF70" d="M135.981 366.135h42.536c-6.785-40.881-8.72-82.168-5.207-125.011-7.333 26.094-12.021 53.732-13.468 83.259l1.155 31.873c-16.466-51.361-31.528-104.974-7.539-154.954-23.372 28.583-30.472 77.566-20.971 147.358l3.494 17.475zm-29.791-.059H54.426c8.256-49.754 10.614-99.998 6.332-152.142 8.926 31.758 14.633 65.395 16.391 101.329l-1.403 38.788c20.04-62.505 38.369-127.754 9.174-188.579 28.442 34.786 37.083 94.4 25.524 179.334l-4.254 21.27zm-76.107.338l20.397-.867c-9.826-17.36-6.606-22.863-5.86-41.462.753-18.729-.589-37.947-3.556-56.68-18.304 25.456-18.195 60.467-10.981 99.009zM198.517 366.414l-16.759-.712c6.889-13.671 4.496-18.32 4.813-34.069.312-15.398.486-31.182 2.924-46.573 15.041 20.917 14.951 49.685 9.022 81.354z"/><path fill="#442F21" d="M4.819 355.326h503.596c1.972 0 3.585 1.625 3.585 3.584v16.805H0v-15.571a4.832 4.832 0 014.819-4.818z"/></svg>