<?xml version="1.0" ?>
<!DOCTYPE svg  PUBLIC '-//W3C//DTD SVG 1.1//EN'  'http://www.w3.org/Graphics/SVG/1.1/DTD/svg11.dtd'>
<!-- Uploaded to: SVG Repo, www.svgrepo.com, Generator: SVG Repo Mixer Tools -->
<svg width="800px" height="800px" viewBox="0 0 2000 2000" enable-background="new 0 0 2000 2000" id="Layer_1" version="1.1" xml:space="preserve" xmlns="http://www.w3.org/2000/svg" xmlns:xlink="http://www.w3.org/1999/xlink">
<g>
<polygon fill="#B75002" points="802.6,1062.2 937.8,1197.4 1050.2,1089.9 907,953  "/>
<path d="M1149.5,1360.8c25.9,25.3,263.5,252.6,435.2,252.7c0,0,0,0,0,0c42.1,0,77.3-13.9,104.7-41.3   c27.7-27.7,41.7-63.2,41.6-105.7c-0.3-171.9-227.7-408.4-253-434.2l-152.3,35.3l-140.9,140.9L1149.5,1360.8z M1240.1,1256   c0.1-0.5,0.4-1,0.8-1.4l131-131c0.4-0.4,0.9-0.7,1.4-0.8l135.1-29.3c1.1-0.2,2.2,0.2,2.9,1c0.7,0.9,71.4,86.6,126.6,185.8   c74.7,134.1,87.3,227.4,37.2,277.5c-19.6,19.6-46.5,29.5-80.1,29.5c0,0,0,0,0,0c-146.7,0-380.8-191.5-383.1-193.4   c-0.8-0.7-1.2-1.8-1-2.9L1240.1,1256z" fill="#808080"/>
<path d="M932.6,1208.8l-141.4-141.4l-88.3-32.1c-9-3.3-18.4-4.9-27.9-4.9c-21.9,0-42.4,8.5-57.9,24l-3.8,3.8   l328.5,328.5l3.8-3.8c22.4-22.4,29.9-56,19.1-85.8L932.6,1208.8z" fill="#808080"/>
<path d="M1594.9,1581.5c31.9,0,57.5-9.4,75.9-27.8c111.3-111.3-143.8-430.3-163.1-454.1l-132.5,28.7l-129.7,129.7   l-28.7,132.5C1236.4,1406.3,1456.1,1581.5,1594.9,1581.5L1594.9,1581.5z" fill="#B2B2B2"/>
<rect fill="#606060" height="34.5" transform="matrix(-0.7071 -0.7071 0.7071 -0.7071 423.5446 2652.9683)" width="464.6" x="528.9" y="1221.5"/>
<path d="M263.5,1407.9l19.4,19.4l239.7-239.7c7.8-7.8,18.2-12.1,29.3-12.1s21.4,4.3,29.3,12.1   c7.8,7.8,12.1,18.2,12.1,29.3c0,11.1-4.3,21.4-12.1,29.3l-239.7,239.7l20.6,20.6l239.7-239.7c7.8-7.8,18.2-12.1,29.3-12.1   s21.4,4.3,29.3,12.1c7.8,7.8,12.1,18.2,12.1,29.3c0,11.1-4.3,21.4-12.1,29.3L420.6,1565l14.4,14.4l239.7-239.7   c7.8-7.8,18.2-12.1,29.3-12.1c11.1,0,21.4,4.3,29.3,12.1c16.1,16.1,16.1,42.4,0,58.5l-239.7,239.7l20.7,20.7l239.7-239.7   c7.8-7.8,18.2-12.1,29.3-12.1s21.4,4.3,29.3,12.1c7.8,7.8,12.1,18.2,12.1,29.3c0,11.1-4.3,21.4-12.1,29.3l-239.7,239.7l19.4,19.4   l317.1-317.1l-328.5-328.5L263.5,1407.9z" fill="#808080"/>
<path d="M1703.9,296.1c-22.5-22.5-52.5-34.9-84.3-34.9c-32.9,0-63.5,13.1-86.2,36.8l-466.7,488l143.9,150.5   L1702,466.6c23.4-22.4,36.5-52.5,36.8-84.9C1739.2,349.4,1726.8,319,1703.9,296.1z" fill="#B75002"/>
<path d="M497.6,261.1c-31.9,0-61.8,12.4-84.3,34.9c-22.9,22.9-35.3,53.3-34.9,85.7c0.4,32.4,13.4,62.5,36.8,84.9   l495.6,473.9h0l151.8,145.2l0,0l116.8,111.7l135.2-135.2L583.9,298C561.1,274.2,530.5,261.1,497.6,261.1z" fill="#B75002"/>
<path d="M416.2,280.1c0,0,4.1,92,79.6,176.5s718.1,714.5,718.1,714.5l-40.9,41.4L1061,1101.5l-4.6-14.1L838.6,882.1   L400.4,472.4C400.4,472.4,306.7,358,416.2,280.1z" fill="#893A04"/>
<polygon fill="#893A04" points="899.1,1168.4 880.3,1149 998.9,1034.9 1057.6,1090.8 941.9,1206.5  "/>
<path d="M1149.5,882.1c0,0,508.6-470.2,564.9-595.1c0,0,38.7,43.1,38.7,70.7c0,27.6-1.1,71.8-29.8,106.1   c-28.7,34.3-503.5,486.8-503.5,486.8L1149.5,882.1z" fill="#893A04"/>
<path d="M1257.2,1246.5l-11.6,11.6l-28.7,132.5c19.4,15.7,236.5,188.7,375.4,190.9   C1392.3,1519,1298,1352.1,1257.2,1246.5z" fill="#808080"/>
<path d="M1609.6,1586.6c-4.8,0.5-9.6,0.8-14.7,0.8c0,0,0,0,0,0c-146.7,0-380.8-191.5-383.1-193.4   c-0.8-0.7-1.2-1.8-1-2.9l29.3-135.1c0.1-0.5,0.4-1,0.8-1.4l14.1-14.1c-13.9-37-21.1-65.5-23.9-78.2l-46.2,46.2l-35.3,152.3   c25.9,25.3,263.5,252.6,435.2,252.7c0,0,0,0,0,0c26.6,0,50.4-5.6,71.3-16.6C1640,1594,1624.5,1590.7,1609.6,1586.6z" fill="#606060"/>
<path d="M551.9,1175.5c11.1,0,21.4,4.3,29.3,12.1c7.8,7.8,12.1,18.2,12.1,29.3c0,11.1-4.3,21.4-12.1,29.3   l-239.7,239.7l20.6,20.6l239.7-239.7c7.8-7.8,18.2-12.1,29.3-12.1s21.4,4.3,29.3,12.1c7.8,7.8,12.1,18.2,12.1,29.3   c0,11.1-4.3,21.4-12.1,29.3L420.6,1565l6.3,6.3l234.8-218.7l12.9-12.9c2.1-2.1,4.4-3.9,6.8-5.5l73.8-68.7l-174.7-174.7   l-317.1,317.1l19.4,19.4l239.7-239.7C530.4,1179.8,540.8,1175.5,551.9,1175.5z" fill="#B2B2B2"/>
<polygon fill="#808080" points="784.8,1238 609.2,1062.3 584.7,1086.7 759.5,1261.5  "/>
<path d="M876.5,1152.6l-85.3-85.3l-88.3-32.1c-9-3.3-18.4-4.9-27.9-4.9c-21.9,0-42.4,8.5-57.9,24l-3.8,3.8   L789.1,1234L876.5,1152.6z" fill="#B2B2B2"/>
<path d="M1769.3,382.1c0.5-40.6-15.1-78.8-43.9-107.6c-28.3-28.3-65.9-43.9-105.9-43.9c-41.3,0-79.7,16.4-108.3,46.3l-452.7,473.5   L605.9,276.9c-28.5-29.8-67-46.3-108.3-46.3c-40,0-77.6,15.6-105.9,43.9c-28.7,28.7-44.3,66.9-43.9,107.6   c0.4,40.6,16.9,78.5,46.2,106.6L872,945.6l-84.3,88.1l-74.4-27c-12.3-4.5-25.2-6.7-38.3-6.7c-30,0-58.2,11.7-79.4,32.9   l-357.7,357.7c-9.6,9.6-9.6,25.2,0,34.8l27.6,27.6c4.5,4.5,10.9,7.1,17.4,7.1c6.5,0,12.9-2.6,17.4-7.1l243.8-243.8   c2.1-2.1,4.7-3.2,7.7-3.2c3,0,5.6,1.1,7.7,3.2c2.1,2.1,3.2,4.8,3.2,7.7c0,3-1.1,5.6-3.2,7.7l-243.8,243.8   c-4.6,4.6-7.3,10.9-7.3,17.4c0,6.5,2.6,12.9,7.2,17.4l28.9,28.9c4.6,4.7,10.8,7.2,17.4,7.2c6.6,0,12.8-2.6,17.4-7.2l243.8-243.8   c2.1-2.1,4.8-3.2,7.7-3.2c3,0,5.6,1.1,7.7,3.2c2.1,2.1,3.2,4.8,3.2,7.7s-1.1,5.6-3.2,7.7L395,1547.6c-9.6,9.6-9.6,25.2,0,34.8   l22.6,22.6c4.5,4.5,10.9,7.1,17.4,7.1c6.5,0,12.9-2.6,17.4-7.1l243.8-243.8c2.1-2.1,4.8-3.2,7.7-3.2c3,0,5.6,1.1,7.7,3.2   c2.1,2,3.2,4.8,3.2,7.7c0,2.9-1.1,5.7-3.2,7.7l-243.8,243.8c-4.6,4.6-7.3,10.9-7.3,17.4c0,6.6,2.6,12.7,7.2,17.4l28.9,28.9   c4.7,4.6,10.8,7.2,17.4,7.2c6.6,0,12.8-2.6,17.4-7.2l243.8-243.8c2.1-2.1,4.8-3.2,7.7-3.2c3,0,5.6,1.1,7.7,3.2   c2.1,2.1,3.2,4.8,3.2,7.7c0,3-1.1,5.6-3.2,7.7l-243.8,243.8c-4.6,4.6-7.3,10.9-7.3,17.5c0,6.5,2.6,12.9,7.2,17.4l27.6,27.6   c4.6,4.7,10.8,7.3,17.5,7.3c6.6,0,12.8-2.6,17.4-7.2l357.7-357.7c30.7-30.7,41-76.9,26.2-117.7l-27-74.5l92.3-88.2l93.8,89.6   l-33.3,143.4c-2,8.4,0.5,17,6.5,23c0.6,0.6,65.9,65.9,154.2,130.8c120.1,88.3,222.7,133.1,304.9,133.1c50.5,0,92.9-16.9,126.2-50.2   c33.6-33.6,50.6-76.4,50.5-127.3c-0.1-82.3-45-184.8-133.4-304.5c-63.5-86-128.1-150.8-130.8-153.6c-4.6-4.6-10.8-7.1-17.3-7.1   c-1.9,0-3.7,0.2-5.6,0.6l-143.4,33.3l-85.7-89.6l477.8-456.9C1752.4,460.6,1768.9,422.7,1769.3,382.1z M592.1,1736.5l-19.4-19.4   l239.7-239.7c7.8-7.8,12.1-18.2,12.1-29.3c0-11.1-4.3-21.4-12.1-29.3c-7.8-7.8-18.2-12.1-29.3-12.1s-21.4,4.3-29.3,12.1   l-239.7,239.7l-20.7-20.7l239.7-239.7c16.1-16.1,16.1-42.4,0-58.5c-7.8-7.8-18.2-12.1-29.3-12.1c-11.1,0-21.4,4.3-29.3,12.1   L435,1579.4l-14.4-14.4l239.7-239.7c7.8-7.8,12.1-18.2,12.1-29.3c0-11.1-4.3-21.4-12.1-29.3c-7.8-7.8-18.2-12.1-29.3-12.1   s-21.4,4.3-29.3,12.1l-239.7,239.7l-20.6-20.6l239.7-239.7c7.8-7.8,12.1-18.2,12.1-29.3c0-11.1-4.3-21.4-12.1-29.3   c-7.8-7.8-18.2-12.1-29.3-12.1s-21.4,4.3-29.3,12.1l-239.7,239.7l-19.4-19.4l317.1-317.1l328.5,328.5L592.1,1736.5z M913.3,1415.3   l-328.5-328.5l24.4-24.4l328.5,328.5L913.3,1415.3z M945.6,1382.9l-3.8,3.8l-328.5-328.5l3.8-3.8c15.5-15.5,36-24,57.9-24   c9.5,0,18.9,1.7,27.9,4.9l88.3,32.1l141.4,141.4l32.1,88.3C975.5,1326.9,968,1360.5,945.6,1382.9z M937.8,1197.4l-135.2-135.2   L907,953l143.2,136.9L937.8,1197.4z M1478,1032.3c25.3,25.7,252.7,262.3,253,434.2c0.1,42.4-13.9,78-41.6,105.7   c-27.4,27.4-62.6,41.3-104.7,41.3c0,0,0,0,0,0c-171.6,0-409.3-227.4-435.2-252.7l35.3-152.3l140.9-140.9L1478,1032.3z    M1314.6,1062.2l-135.2,135.2l-116.8-111.7l0,0L910.8,940.6h0L415.2,466.6c-23.4-22.4-36.5-52.5-36.8-84.9   c-0.4-32.4,12-62.8,34.9-85.7c22.5-22.5,52.5-34.9,84.3-34.9c32.9,0,63.5,13.1,86.2,36.8L1314.6,1062.2z M1210.6,936.5L1066.7,786   l466.7-488c22.7-23.8,53.3-36.8,86.2-36.8c31.9,0,61.8,12.4,84.3,34.9c22.9,22.9,35.3,53.3,34.9,85.7   c-0.4,32.4-13.4,62.5-36.8,84.9L1210.6,936.5z"/>
<path d="M1594.9,1587.4C1594.9,1587.4,1594.9,1587.4,1594.9,1587.4c33.5,0,60.5-9.9,80.1-29.5c50.1-50.1,37.5-143.4-37.2-277.5   c-55.3-99.2-125.9-184.9-126.6-185.8c-0.7-0.8-1.8-1.2-2.9-1l-135.1,29.3c-0.5,0.1-1,0.4-1.4,0.8l-131,131   c-0.4,0.4-0.7,0.9-0.8,1.4l-29.3,135.1c-0.2,1.1,0.2,2.2,1,2.9C1214.1,1395.9,1448.2,1587.3,1594.9,1587.4z M1245.6,1258.1   l129.7-129.7l132.5-28.7c19.3,23.7,274.3,342.8,163.1,454.1c-18.5,18.5-44,27.8-75.9,27.8h0c-138.8,0-358.5-175.2-378-191   L1245.6,1258.1z"/>
</g>
</svg>